<?xml version="1.0" standalone="no"?>
<!DOCTYPE svg PUBLIC "-//W3C//DTD SVG 20010904//EN"
 "http://www.w3.org/TR/2001/REC-SVG-20010904/DTD/svg10.dtd">
<svg version="1.0" xmlns="http://www.w3.org/2000/svg"
 width="16.000000pt" height="16.000000pt" viewBox="0 0 16.000000 16.000000"
 preserveAspectRatio="xMidYMid meet">
<metadata>
Created by potrace 1.11, written by Peter Selinger 2001-2013
</metadata>
<g transform="translate(0.000000,16.000000) scale(0.003125,-0.003125)"
fill="#000000" stroke="none">
<path d="M180 4753 c-1 -5 -4 -51 -8 -103 -14 -200 -7 -735 13 -851 2 -13 6
-46 9 -74 5 -43 13 -91 41 -250 11 -58 57 -231 83 -310 14 -44 27 -82 27 -85
2 -7 12 -31 56 -133 73 -169 177 -342 295 -489 56 -70 62 -80 42 -73 -17 5
-76 12 -169 21 -41 3 -75 9 -77 13 -1 3 -26 6 -55 5 -28 0 -66 3 -84 7 -18 4
-34 5 -36 3 -6 -6 45 -156 82 -242 31 -71 44 -97 99 -192 145 -251 372 -465
682 -643 95 -54 90 -56 -75 -17 -44 10 -119 27 -167 38 l-87 19 44 -57 c24
-32 42 -60 40 -64 -3 -3 -2 -4 1 -1 4 2 25 -18 48 -46 61 -75 190 -206 281
-284 44 -38 82 -71 85 -74 3 -3 12 -10 21 -16 137 -88 228 -153 222 -160 -5
-4 -3 -5 4 -1 7 3 49 -14 95 -38 222 -120 580 -230 853 -261 28 -4 57 -8 65
-10 8 -2 53 -7 100 -10 47 -4 96 -9 110 -11 14 -2 86 -6 161 -9 226 -9 295 17
385 140 16 22 31 42 34 45 16 16 154 319 195 430 14 37 62 208 70 250 35 179
47 294 48 458 1 106 -9 291 -18 344 -10 57 -13 75 -25 138 -81 446 -324 902
-648 1212 -168 162 -421 331 -642 432 -101 45 -321 124 -375 133 -11 2 -38 8
-60 14 -22 6 -47 13 -55 14 -290 65 -490 114 -605 152 -272 87 -574 245 -818
426 -133 99 -219 168 -252 201 -17 17 -35 21 -35 9z m945 -1003 c22 -13 58
-33 80 -45 197 -107 577 -382 775 -561 140 -127 436 -434 417 -434 -2 0 12
-18 32 -39 45 -49 47 -52 119 -148 181 -242 362 -554 481 -828 24 -55 47 -108
52 -118 27 -52 152 -411 183 -527 8 -30 23 -82 32 -115 9 -33 17 -67 19 -75 2
-8 15 -62 28 -119 20 -80 23 -110 15 -132 -33 -95 -233 -116 -607 -64 -58 8
-106 15 -108 15 -2 0 -1 6 3 13 5 9 4 9 -5 1 -9 -8 -38 -6 -109 7 -53 9 -115
20 -137 23 -22 4 -65 13 -95 20 l-55 14 50 2 c28 1 59 4 70 5 21 2 127 12 235
20 36 3 83 7 105 10 22 2 78 7 125 11 47 4 96 8 110 9 14 2 35 3 48 4 19 1 22
5 18 29 -3 15 -7 52 -11 82 -5 49 -13 99 -30 195 -25 149 -82 321 -143 435
-139 261 -344 398 -717 479 -49 11 -109 22 -132 26 -23 3 -57 8 -75 11 -18 2
-51 7 -73 9 -22 3 -69 10 -105 15 -36 5 -87 12 -115 15 -27 3 -61 7 -75 10
-14 2 -68 9 -120 15 -52 7 -104 14 -115 16 -11 2 -40 7 -65 10 -88 12 -53 16
75 9 72 -4 164 -8 205 -11 239 -12 295 -15 395 -20 61 -2 135 -7 165 -9 80 -5
346 -18 410 -19 53 -1 55 0 51 24 -15 109 -120 336 -218 472 -63 88 -218 245
-303 309 -30 22 -54 45 -52 51 1 5 -2 7 -7 3 -6 -3 -42 15 -82 41 -95 61 -262
143 -374 185 -49 18 -92 35 -95 38 -3 4 -12 7 -20 8 -35 3 -260 69 -260 75 0
4 10 5 23 2 12 -2 114 -7 227 -10 113 -3 233 -7 268 -8 66 -3 72 1 45 24 -10
8 -57 48 -105 89 -49 40 -88 77 -88 83 0 5 -4 7 -9 4 -5 -4 -11 -3 -13 1 -1 5
-30 30 -63 58 -33 27 -71 59 -85 72 -14 12 -104 88 -200 169 -96 80 -182 153
-190 162 -14 14 104 -46 195 -98z"/>
<path d="M4885 2858 c-135 -111 -304 -209 -455 -263 -41 -14 -142 -42 -225
-61 -178 -41 -281 -73 -368 -115 l-64 -30 13 -57 c29 -121 49 -251 61 -392 14
-158 6 -506 -13 -603 -2 -12 -7 -42 -10 -67 -17 -130 -83 -395 -130 -514 -8
-21 -13 -40 -12 -42 3 -3 108 10 168 21 48 9 196 53 250 75 172 69 347 201
465 351 l49 62 -35 -7 c-18 -4 -38 -9 -44 -10 -5 -2 -28 -6 -50 -10 -22 -4
-49 -10 -60 -13 -11 -2 0 7 23 21 24 14 49 23 55 19 7 -3 9 -3 5 2 -5 5 13 23
40 41 101 69 210 191 263 295 30 60 69 158 69 173 0 8 -23 6 -167 -10 -45 -5
-54 4 -27 27 21 17 83 109 120 179 56 104 114 286 129 410 4 30 11 82 15 115
8 61 7 441 -1 448 -2 2 -31 -18 -64 -45z"/>
</g>
</svg>
